<svg version="1.1" xmlns="http://www.w3.org/2000/svg" width="160" height="160" viewBox="0 0 160 160"><g transform="scale(1,1) rotate(0,80,80)" fill-opacity="1">
	<g><circle cx="80" cy="80" r="80" fill="#FFFFFF" display="inline"/></g>
	<g>
		<g id="ringback" display="inline"><path fill="#FF0100" d="M80,0C35.817,0,0,35.817,0,80c0,44.184,35.817,80,80,80c44.184,0,80-35.816,80-80C160,35.817,124.184,0,80,0z M80,155.5c-41.697,0-75.5-33.804-75.5-75.5C4.5,38.303,38.303,4.5,80,4.5c41.696,0,75.5,33.803,75.5,75.5C155.5,121.696,121.696,155.5,80,155.5z"/></g>

		<g id="ringfore" display="none" transform="rotate(310,80,80)">
			<path fill="#FF0100" d="M39.5,16.2v-5.3c-5.7,3.4-11.1,7.6-16,12.5c-5,5-9.1,10.3-12.5,16h5.3c2.9-4.5,6.3-8.8,10.3-12.8S34.9,19.2,39.5,16.2z"/>
			<path fill="#FF0100" d="M15.6,40.4h-5.2c-2.8,5-5.1,10.3-6.7,15.8l3.2,5.5C8.7,54.1,11.6,47,15.6,40.4z"/>
			<path fill="#FF0100" d="M97.4,2C91.9,0.8,86.1,0.1,80,0C65.2,0.3,52.1,3.8,40.5,10.4v5.2C52,8.5,65.1,4.8,80,4.5c7.3,0.1,14.1,1.1,20.5,2.9L97.4,2z"/>
			<path fill="#FF0100" d="M129.3,22.8l2.3-3.9c-9.5-8.2-20.5-13.7-32.8-16.6l3.1,5.5C112.1,10.7,121.3,15.7,129.3,22.8z"/>
			<path fill="#FF0100" d="M132.3,19.5l-2.2,3.9c1.1,1,2.2,2.1,3.3,3.2c9,9,15.3,19.4,18.8,31.4l5.5,3.1c-3.4-14.5-10.5-27-21.1-37.7C135.2,22.1,133.8,20.8,132.3,19.5z"/>
			<path fill="#FF0100" d="M158,62.4l-5.4-3.1c1.8,6.5,2.8,13.4,2.9,20.7c-0.1,6-0.8,11.7-2,17.1l3.2,5.6c2-7.1,3.1-14.7,3.3-22.7C159.9,73.8,159.2,68,158,62.4z"/>
			<path fill="#FF0100" d="M156.3,104l-3.1-5.5c-3.4,13.4-9.9,25-19.8,34.9c-4,4-8.3,7.4-12.9,10.4v5.2c5.8-3.4,11.1-7.5,16.1-12.5C146,127.2,152.6,116.3,156.3,104z"/>
			<path fill="#FF0100" d="M119.5,149.6v-5.2c-11.4,7-24.6,10.7-39.5,11.1c-7.3-0.2-14.2-1.2-20.7-3l3.1,5.4c5.6,1.2,11.5,1.9,17.6,2.1C94.8,159.6,108,156.2,119.5,149.6z"/>
			<path fill="#FF0100" d="M6.5,63.1l-3.2-5.6C1.3,64.5,0.2,72,0,80c0.4,14.7,3.8,27.9,10.4,39.4h5.2C8.6,108,4.9,94.9,4.5,80C4.7,74.1,5.3,68.5,6.5,63.1z"/>
			<path fill="#FF0100" d="M16.2,120.4H11c3.3,5.8,7.5,11.2,12.5,16.1c4.9,5,10.2,9.1,16,12.5l-0.1-5.3c-4.5-2.9-8.8-6.3-12.8-10.3C22.6,129.3,19.1,125,16.2,120.4z"/>
			<path fill="#FF0100" d="M40.4,144.4l0.1,5.2c6.3,3.6,13.2,6.3,20.6,8l-3.2-5.5C51.7,150.3,45.9,147.7,40.4,144.4z"/>
		</g>

		<g id="centersign" transform="translate(0,0) scale(1,1)">
			<g id="signstar" display="inline">
				<polygon fill="#FF0100" points="79.5,58.5 84.633,73.722 100.563,73.722 87.818,83.277 92.42,98.5 79.5,89.475 66.58,98.5 71.182,83.277 58.438,73.722 74.367,73.722"/>
			</g>
			<g id="signparty" display="none"><path fill="#FF0100" d="M80.448,58.475c10.11,3.89,16.197,16.188,10.938,26.069L78.592,71.51l4.953-4.941l-3.097-3.153c-1.651,1.683-4.333,1.999-6.19,1.261l-9.699,9.985l5.572,5.571l3.61-3.784l12.792,13.035c-6.292,3.574-14.958,2.418-21.354-4.311l-2.992,3.156c0.826,1.258,1.65,2.414,2.579,3.466c0,0.104-0.309,0.316-0.309,0.316c-0.207,0-0.413-0.105-0.517-0.105c-1.65,0-2.993,1.47-2.993,3.153c0,1.682,1.342,3.047,2.993,3.047s3.095-1.365,3.095-3.047c0-0.209-0.103-0.421-0.103-0.525l0.412-0.525c7.429,5.045,15.477,5.677,24.142,0.423l3.508,3.675l4.953-4.938l-3.612-3.682C106.654,73.717,92.831,58.054,80.448,58.475"/></g>
		</g>
	</g>
<g><g transform="rotate(-120,80,80)"><g transform="translate(72.2,8) scale(0.015234375000000001,0.02361328125)"><g transform="scale(1,-1) translate(0,-820)"><path d="M637 669H225H217L156 676Q143 679 145 672Q149 653 155 636Q156 629 166 633L225 642H637H672H826V642Q839 642 843 649Q846 655 839 663V663Q797 718 736 755Q723 762 715 753Q684 716 656 679Q652 672 637 669V669V669ZM252 53Q200 4 164 -17Q163 -18 161 -19Q145 -18 133 -18Q121 -17 122 -27Q123 -39 136 -83Q143 -114 152 -136Q158 -151 170 -151Q180 -150 185 -135Q188 -128 217 -121Q439 -84 612 -43Q700 -22 746 -10Q785 -59 804 -104Q819 -141 840 -150Q865 -160 888 -147Q907 -134 916 -106Q922 -78 911 -56Q884 -4 809 49Q706 122 591 174Q582 178 577 171Q573 165 581 158Q666 88 724 18Q725 17 726 15Q572 -4 390 -14Q290 -18 223 -19Q295 30 366 101Q462 201 522 300Q526 306 533 305Q554 305 558 317Q561 330 543 340Q515 355 485 366H757H792H946V366Q959 366 963 373Q966 379 959 387V387Q917 442 856 479Q843 486 835 477Q804 440 776 403Q772 396 757 393H129H121L60 400Q47 403 49 396Q53 377 59 360Q60 353 70 357L129 366H430Q429 363 429 360Q389 251 323 148Q289 99 252 53V53V53V54V53Z" fill="#FF0100"/></g></g></g><g transform="rotate(-98.18181818181819,80,80)"><g transform="translate(72.2,8) scale(0.015234375000000001,0.02361328125)"><g transform="scale(1,-1) translate(0,-820)"><path d="M292 14H725V-26Q725 -39 715 -51Q709 -57 694 -58Q681 -59 639 -55Q624 -54 621 -63Q620 -73 630 -79Q667 -89 687 -119Q703 -144 704 -168Q705 -178 712 -177Q754 -178 795 -154Q835 -129 836 -69V163Q836 181 850 189Q880 199 882 214Q883 227 870 241Q840 266 771 299Q759 305 751 296Q738 280 719 254Q712 247 695 245H649Q700 278 741 324Q754 336 764 337Q783 338 785 352Q786 367 760 376Q715 392 666 404Q659 407 657 396Q642 324 606 245H556V355Q556 364 562 365Q586 372 586 385Q586 395 566 403Q517 416 459 422Q452 422 452 418Q452 409 452 402V245H384Q397 255 401 273Q405 295 393 316Q377 343 344 363Q311 382 255 392Q245 393 244 386Q243 377 249 372Q271 356 289 329Q304 304 309 277Q313 258 326 245H301H290Q238 273 191 287Q181 291 180 284Q181 280 181 277V-140Q180 -161 188 -167Q201 -177 223 -177Q251 -176 274 -163Q292 -151 292 -124V14V14ZM292 41V114H725V41H292V41ZM292 141V216L301 218H715Q724 219 725 207V141H292V141ZM452 602V476Q452 452 469 443Q500 427 532 440Q554 450 556 476V602H837Q831 542 812 480Q811 470 814 465Q818 462 830 468Q887 511 956 575Q962 579 969 580Q985 581 991 592Q992 602 981 612Q933 646 876 670Q867 674 860 670Q839 655 825 638Q819 632 809 629H556V694H658H686H852Q864 694 867 699Q868 705 863 712Q820 755 762 788Q749 795 738 783Q722 768 686 727Q683 724 676 721Q669 721 658 721H237H229L166 729Q153 732 155 724Q161 706 165 690Q168 684 176 687L237 694H452V629H225H210L169 632Q168 645 165 659Q164 666 158 667Q154 667 152 660Q136 611 117 589Q98 567 68 553Q40 541 30 512Q20 484 33 462Q49 441 76 438Q104 437 128 457Q158 488 168 545Q172 572 172 598L225 602H452V602ZM212 549V522H408V549H212V549ZM212 465V438H408V465H212V465ZM592 549V522H780V549H592V549ZM592 465V438H788V465H592V465V466V465Z" fill="#FF0100"/></g></g></g><g transform="rotate(-76.36363636363637,80,80)"><g transform="translate(72.2,8) scale(0.015234375000000001,0.02361328125)"><g transform="scale(1,-1) translate(0,-820)"><path d="M247 -10Q223 -22 211 -30Q204 -34 191 -39Q181 -38 174 -37Q164 -36 164 -46Q165 -58 176 -102Q183 -133 191 -157Q195 -170 208 -171Q218 -171 224 -156Q227 -149 256 -143Q461 -112 621 -77Q691 -62 734 -52Q743 -73 751 -97Q764 -140 798 -162Q820 -175 847 -167Q875 -157 882 -126Q891 -86 870 -44Q843 8 783 49Q722 89 617 112Q607 115 604 105Q603 95 610 89Q661 61 700 8Q710 -7 719 -23Q577 -36 413 -40Q322 -41 260 -41Q302 -25 346 1Q409 40 459 84Q466 91 475 91Q493 87 499 99Q503 111 482 126Q461 139 440 150H799H834H974V150Q987 150 991 157Q994 163 987 171V171Q950 223 893 257Q881 264 873 255Q843 221 818 186Q814 180 806 177Q802 177 799 177H784V671Q784 680 790 681Q809 688 810 700Q810 710 800 718Q760 751 716 774Q709 777 704 774Q688 759 674 742Q670 735 661 733H357H355Q294 767 243 783Q236 784 236 771V177H121H113L52 184Q39 187 41 180Q45 161 51 144Q52 137 62 141L121 150H372Q347 104 306 52Q278 19 248 -9Q247 -9 247 -10V-10V-10ZM348 177V334H673V177H348V177ZM348 361V518H673V361H348V361ZM348 545V704L357 706H673V545H348V545V546V545Z" fill="#FF0100"/></g></g></g><g transform="rotate(-54.54545454545455,80,80)"><g transform="translate(72.2,8) scale(0.015234375000000001,0.02361328125)"><g transform="scale(1,-1) translate(0,-820)"><path d="M138 54H215V26Q215 11 222 4Q232 -6 253 -7Q284 -7 303 5Q322 17 322 38V198H559Q553 156 542 116Q503 11 415 -60Q325 -127 217 -165Q210 -168 210 -176Q211 -182 219 -181Q334 -163 443 -108Q560 -48 619 67Q635 103 647 142Q651 123 657 101Q672 46 696 1Q723 -48 768 -92Q811 -132 875 -173Q887 -179 891 -170Q904 -145 929 -120Q954 -95 997 -86Q1006 -85 1005 -78Q1004 -71 996 -70Q956 -64 895 -37Q840 -12 788 28Q734 70 702 120Q678 159 664 198H871H913H977V198Q989 198 992 206Q996 215 987 226Q966 262 938 285Q928 292 919 282Q897 254 881 231Q878 228 876 226V491Q876 500 882 501Q901 508 902 520Q902 530 892 538Q852 571 808 594Q801 597 796 594Q780 579 766 562Q762 555 753 553H678V725Q677 734 686 736Q705 740 706 755Q706 768 678 774Q626 781 576 782Q572 782 571 776Q571 767 571 760V725V553H487Q426 587 375 603Q368 604 368 591V225H322V591Q322 598 331 603Q352 610 354 624Q355 636 341 648Q310 673 247 695Q234 699 225 687Q218 680 197 655Q191 648 177 649H148Q90 682 42 697Q35 700 33 698Q32 697 31 690V12Q31 -7 40 -15Q50 -25 71 -26Q105 -25 123 -10Q138 0 138 33V54V54ZM138 81V338H215V81H138V81ZM138 365V620L145 622H205Q212 625 215 616V365H138V365ZM571 520Q571 438 571 340Q571 282 563 225H480V525L485 526H571V520V520ZM673 310Q677 431 678 520V526H765V225H665Q671 265 673 310V310V310V311V310Z" fill="#FF0100"/></g></g></g><g transform="rotate(-32.727272727272734,80,80)"><g transform="translate(72.2,8) scale(0.015234375000000001,0.02361328125)"><g transform="scale(1,-1) translate(0,-820)"><path d="M360 -118H665V-138Q665 -159 673 -170Q682 -182 705 -182Q741 -179 759 -169Q775 -159 776 -139V49Q776 62 786 67Q807 76 807 88Q807 98 795 108Q782 118 769 125Q833 113 894 109Q910 108 911 119Q914 149 937 179Q959 212 986 222Q999 226 997 234Q996 241 980 241Q881 235 770 248Q674 261 597 287Q691 360 734 420Q738 424 746 435Q756 445 764 448Q786 452 787 465Q788 478 772 488Q736 516 688 542Q682 546 674 542Q658 526 648 509Q644 499 636 497H394Q403 510 413 523Q422 536 428 537Q450 538 453 549Q456 562 433 574Q382 596 326 610Q319 611 317 605Q316 601 314 594Q293 518 229 439Q163 361 96 317Q89 314 90 308Q91 302 100 304Q182 323 271 381Q304 405 333 431Q355 391 392 340Q414 310 446 282Q385 245 312 210Q171 155 38 130Q26 129 26 118Q27 108 40 108Q134 115 249 141V-140Q248 -161 256 -167Q269 -177 291 -177Q319 -176 342 -163Q360 -151 360 -124V-118V-118ZM360 -91V94H654Q661 97 665 88V-91H360V-91ZM660 128Q654 121 648 121H358Q322 140 291 151Q313 158 337 164Q425 191 506 233Q512 229 520 223Q596 174 676 149Q669 140 660 128V128V128ZM445 367Q396 403 355 453Q362 460 369 467L385 470H640Q589 391 509 326Q476 345 445 367V367V367ZM823 622Q807 574 781 525Q777 515 780 509Q784 506 798 509Q861 537 940 584Q947 587 954 587Q972 586 979 594Q983 604 973 617Q927 656 872 685Q863 689 856 686Q834 673 817 657Q811 653 801 649H548Q557 658 562 673Q566 694 556 715Q543 740 512 762Q481 783 428 795Q418 798 415 790Q412 780 420 774Q439 758 452 730Q464 705 466 679Q467 661 479 649H225H201L175 651Q174 672 169 691Q168 698 162 699Q158 699 155 692Q140 652 123 635Q107 617 81 607Q51 595 40 565Q30 537 42 514Q57 492 85 488Q115 485 139 505Q166 535 174 586Q175 602 176 618L225 622H823V622V623V622Z" fill="#FF0100"/></g></g></g><g transform="rotate(-10.90909090909092,80,80)"><g transform="translate(72.2,8) scale(0.015234375000000001,0.02361328125)"><g transform="scale(1,-1) translate(0,-820)"><path d="M216 689L217 690H795Q804 691 805 679V-26Q805 -39 795 -51Q788 -58 771 -59Q755 -60 707 -55Q692 -54 689 -63Q688 -75 698 -79Q738 -86 761 -117Q780 -144 783 -168Q784 -178 792 -177Q834 -178 875 -154Q915 -129 916 -69V635Q916 653 930 661Q960 671 962 686Q963 699 950 713Q920 738 851 771Q839 777 831 768Q818 752 799 726Q792 719 775 717H227Q167 751 117 768Q110 769 107 768Q106 767 105 760V-139Q105 -158 114 -167Q124 -177 146 -178Q182 -178 201 -162Q216 -150 216 -117V689V689ZM384 197Q394 145 397 100Q397 64 411 49Q427 33 451 34Q473 38 489 59Q502 80 502 102Q501 180 441 286Q435 296 430 306Q440 339 451 373Q478 482 492 576Q493 583 501 585Q517 589 517 601Q516 611 495 618Q446 627 396 628Q389 628 389 620Q390 605 390 593Q389 500 374 401Q373 401 373 400Q319 485 254 563Q247 570 241 566Q237 562 240 553Q313 421 354 302Q338 238 315 173Q285 98 243 36Q239 30 242 27Q243 24 250 27Q311 76 366 163Q375 179 384 197V197V197ZM661 222Q679 155 681 99Q680 63 695 49Q711 33 735 34Q757 38 772 59Q787 80 786 102Q785 178 725 284Q715 305 702 325Q708 344 714 362Q744 471 760 566Q761 573 769 576Q785 580 785 591Q785 601 764 609Q715 619 665 621Q658 622 658 614Q659 599 659 586Q655 507 641 421Q593 494 538 559Q531 566 525 561Q521 557 524 549Q585 438 625 334Q604 249 572 161Q539 86 495 24Q491 18 494 15Q495 11 502 15Q566 63 623 150Q642 184 661 222V222V222V223V222Z" fill="#FF0100"/></g></g></g><g transform="rotate(10.909090909090907,80,80)"><g transform="translate(72.2,8) scale(0.015234375000000001,0.02361328125)"><g transform="scale(1,-1) translate(0,-820)"><path d="M560 556Q567 526 579 493Q601 432 631 383Q588 338 529 296Q451 247 364 212Q355 211 356 204Q357 198 369 199Q414 205 502 234Q584 262 656 312Q665 319 674 325Q696 300 726 275Q778 232 857 190Q870 184 874 193Q886 221 910 248Q935 275 979 287Q988 288 987 296Q986 302 977 303Q928 309 857 338Q803 360 751 394Q770 416 789 438Q835 499 870 594Q874 607 885 611Q910 618 913 631Q914 641 902 653Q869 681 813 703Q798 710 791 700Q778 690 766 673Q759 664 750 665H620Q630 692 641 719Q645 735 653 739Q672 745 673 757Q672 769 652 773Q595 785 546 787Q536 787 536 781Q536 765 535 752Q534 722 519 659Q500 586 466 519Q438 459 394 408Q390 404 392 398Q396 394 403 398Q467 437 535 521Q548 539 560 556V556V556ZM624 516Q599 553 582 591Q594 613 607 636L617 638H754Q761 639 762 636Q763 633 760 617Q744 553 713 495Q698 470 683 447Q649 478 624 516V516V516ZM572 -102H761V-138Q761 -159 769 -170Q778 -182 801 -182Q837 -179 855 -169Q871 -159 872 -139V97Q872 110 882 115Q903 124 903 136Q903 146 891 156Q845 189 794 207Q787 210 782 206Q769 193 756 176Q750 169 744 169H585H570Q516 199 471 211Q461 215 460 208Q461 204 461 201V-140Q460 -161 468 -167Q481 -177 503 -177Q531 -176 554 -163Q572 -151 572 -124V-102V-102ZM572 -75V140L585 142H750Q757 145 761 136V-75H572V-75ZM231 433Q218 414 204 393Q128 287 53 246Q52 245 48 243Q45 242 49 234Q61 215 94 150Q112 110 125 110Q137 110 139 131Q140 147 172 155Q194 162 222 173Q279 191 322 212Q346 222 357 228Q393 238 389 253Q385 266 350 259Q328 255 291 248Q230 238 137 237Q210 292 277 362Q338 423 379 481Q389 497 401 498Q435 498 438 514Q441 529 404 549Q362 571 312 590Q302 591 301 586Q301 583 301 581Q285 533 262 487Q252 488 241 487Q192 484 120 493Q175 538 225 592Q270 641 300 687Q309 703 321 704Q355 708 356 723Q357 739 320 756Q277 775 225 790Q215 791 215 786Q215 782 215 780Q197 698 152 621Q100 530 43 491Q42 490 39 489Q35 488 39 480Q49 462 78 401Q93 364 105 363Q115 363 119 383Q120 398 150 403Q166 409 189 418Q210 425 231 433V433V433ZM56 18Q46 17 48 7Q52 -3 71 -41Q84 -68 96 -87Q103 -99 115 -97Q124 -94 126 -80Q127 -73 152 -61Q254 -15 332 27Q390 58 407 70Q419 77 416 86Q413 95 398 90Q307 62 194 40Q94 21 56 18V18V18V19V18Z" fill="#FF0100"/></g></g></g><g transform="rotate(32.72727272727272,80,80)"><g transform="translate(72.2,8) scale(0.015234375000000001,0.02361328125)"><g transform="scale(1,-1) translate(0,-820)"><path d="M665 -34Q686 -56 712 -78Q773 -130 866 -178Q879 -185 884 -175Q896 -147 922 -119Q949 -91 993 -79Q1003 -78 1002 -70Q1001 -63 992 -62Q934 -55 853 -17Q802 7 752 38Q786 72 816 108Q874 181 916 297Q920 310 931 314Q958 321 960 332Q961 344 950 354Q919 384 862 408Q847 415 840 406Q827 394 814 378Q807 368 798 369H728V554H768H803H950V554Q963 554 967 561Q970 567 963 575V575Q923 629 864 664Q852 671 844 662Q813 628 787 590Q783 584 775 581Q771 581 768 581H728V722Q728 732 735 733Q760 740 760 755Q760 765 739 774Q685 789 623 794Q616 795 616 790Q616 781 616 773V581H481H473L412 588Q399 591 401 584Q405 565 411 548Q412 541 422 545L481 554H616V369H493L425 375Q415 376 415 370Q419 352 424 335Q425 331 438 334L493 342H499Q509 267 541 176Q566 101 604 43Q611 33 619 21Q570 -24 506 -67Q406 -125 296 -163Q287 -166 288 -172Q289 -178 301 -177Q356 -171 463 -136Q563 -103 652 -43Q658 -39 665 -34V-34V-34ZM586 200Q543 270 522 342H802Q808 343 809 340Q810 337 807 323Q785 244 743 173Q715 128 683 89Q623 140 586 200V200V200ZM267 258Q337 306 391 361Q395 367 391 372Q387 376 381 372Q326 344 267 321V502H287H381Q393 502 396 510Q399 517 391 529Q369 566 339 591Q327 601 319 588Q295 560 280 536Q277 532 273 529Q269 529 267 529V728Q267 737 275 739Q297 746 298 760Q298 776 269 781Q212 791 164 794Q157 795 157 785Q156 776 157 769L156 529H105H97L33 536Q23 537 24 532Q28 514 32 497Q33 491 40 494L105 502H156V286Q102 273 67 270Q51 269 24 265Q15 264 18 254Q37 196 64 141Q73 123 87 127Q99 131 97 150Q96 160 106 165Q128 178 156 191V-38Q156 -48 148 -57Q141 -64 128 -63Q92 -62 54 -60Q45 -60 44 -70Q43 -79 54 -82Q94 -100 110 -125Q123 -146 122 -171Q121 -175 131 -177Q195 -176 231 -146Q267 -116 267 -78V258V258V259V258Z" fill="#FF0100"/></g></g></g><g transform="rotate(54.54545454545453,80,80)"><g transform="translate(72.2,8) scale(0.015234375000000001,0.02361328125)"><g transform="scale(1,-1) translate(0,-820)"><path d="M623 722Q648 700 664 667Q679 636 682 602Q685 577 701 561Q720 545 746 550Q774 554 783 583Q790 608 779 634Q766 667 731 695Q695 723 632 742Q622 746 619 738Q616 728 623 722V722V722ZM563 390Q573 350 589 303Q614 228 648 166Q679 111 731 52Q792 -15 861 -51Q876 -60 880 -50Q889 -26 919 4Q952 28 988 35Q998 36 999 45Q1000 51 989 53Q925 75 851 125Q781 171 725 230Q667 291 628 355Q591 418 570 482H773H808H962V482Q975 482 979 489Q982 495 975 503V503Q933 558 872 595Q859 602 851 593Q820 556 792 519Q788 512 773 509H563L564 718Q564 731 574 734Q599 741 599 758Q599 774 569 781Q511 791 459 796Q452 796 452 790Q452 786 453 778L452 509H121H113L52 516Q39 519 41 512Q45 493 51 476Q52 469 62 473L121 482H406Q363 319 255 173Q146 32 45 -36Q38 -40 38 -48Q41 -55 51 -51Q178 -9 316 124Q395 208 452 309V-136Q452 -157 469 -168Q503 -184 537 -171Q562 -158 563 -131V390V390V391V390Z" fill="#FF0100"/></g></g></g><g transform="rotate(76.36363636363635,80,80)"><g transform="translate(72.2,8) scale(0.015234375000000001,0.02361328125)"><g transform="scale(1,-1) translate(0,-820)"><path d="M781 -59H564V622H709H744H898V622Q911 622 915 629Q918 635 911 643V643Q869 698 808 735Q795 742 787 733Q756 696 728 659Q724 652 709 649H197H189L128 656Q115 659 117 652Q121 633 127 616Q128 609 138 613L197 622H453V-59H121H113L52 -52Q39 -49 41 -56Q45 -75 51 -92Q52 -99 62 -95L121 -86H781H816H970V-86Q983 -86 987 -79Q990 -73 983 -65V-65Q941 -10 880 27Q867 34 859 25Q828 -12 800 -49Q796 -56 781 -59V-59V-59V-58V-59Z" fill="#FF0100"/></g></g></g><g transform="rotate(98.18181818181816,80,80)"><g transform="translate(72.2,8) scale(0.015234375000000001,0.02361328125)"><g transform="scale(1,-1) translate(0,-820)"><path d="M176 393V-123Q176 -148 195 -160Q231 -173 267 -159Q286 -149 287 -122V438Q287 444 296 446Q315 452 315 462Q315 474 303 481L253 506Q253 506 254 506Q291 573 339 685Q346 703 357 704Q384 705 387 720Q390 733 373 743Q354 753 314 770Q277 783 251 790Q238 794 235 776Q231 745 218 682Q203 618 171 529Q146 456 109 391Q69 327 33 286Q26 279 30 272Q34 266 45 272Q70 288 106 319Q140 350 176 393V393V393ZM752 157H656V334H758H799H926Q939 334 943 341Q946 347 939 355V355Q903 404 849 438Q839 445 830 436Q802 403 777 370Q773 364 760 361H656V538H780H822H970Q983 538 987 545Q990 551 983 559V559Q941 614 880 651Q867 658 859 649Q828 612 802 575Q796 568 782 565H508Q530 614 561 682Q567 700 578 701Q605 702 607 718Q610 731 593 741Q574 751 533 766Q496 779 470 784Q457 788 455 771Q451 738 439 676Q429 624 406 550Q387 489 360 435Q329 381 301 346Q294 339 298 332Q302 325 313 332Q334 345 364 372Q397 400 429 440Q463 483 490 530Q491 534 494 538H544V-129Q544 -154 562 -164Q596 -180 630 -167Q655 -157 656 -129V130H750H791H918Q931 130 935 137Q938 143 931 151V151Q895 200 841 234Q831 241 822 232Q794 199 769 166Q765 160 752 157V157V157V158V157Z" fill="#FF0100"/></g></g></g><g transform="rotate(119.99999999999997,80,80)"><g transform="translate(72.2,8) scale(0.015234375000000001,0.02361328125)"><g transform="scale(1,-1) translate(0,-820)"><path d="M773 -123H568V38H669H704H858V38Q871 38 875 45Q878 51 871 59V59Q829 114 768 151Q755 158 747 149Q716 112 688 75Q684 68 669 65H568V150Q568 160 575 161Q600 168 600 183Q600 193 579 202Q525 217 463 222Q456 223 456 218Q456 209 456 201V65H250H242L180 72Q167 75 169 68Q173 49 179 32Q180 25 190 29L250 38H456V-123H134H126L64 -116Q51 -113 53 -120Q57 -139 63 -156Q64 -163 74 -159L134 -150H773H808H962V-150Q975 -150 979 -143Q982 -137 975 -129V-129Q933 -74 872 -37Q859 -30 851 -39Q820 -76 792 -113Q788 -120 773 -123V-123V-123ZM268 334Q237 315 213 307Q209 306 203 302Q190 303 177 305Q165 308 166 297Q167 285 176 242Q182 211 189 190Q193 175 205 175Q215 175 221 189Q224 196 252 201Q454 225 613 253Q698 268 741 277Q757 250 771 220Q781 187 798 178Q816 168 837 176Q859 183 872 213Q884 240 873 267Q854 322 784 358Q705 398 599 425Q589 426 588 418Q587 409 597 406Q646 385 701 327Q711 315 723 303Q579 293 411 295Q348 296 301 296Q314 303 330 310Q399 347 449 388Q455 392 460 391Q481 385 488 394Q494 406 479 421Q454 446 425 466H676H711H858V466Q871 466 875 473Q878 479 871 487V487Q861 500 849 513Q894 541 948 576Q955 580 963 579Q981 578 988 587Q992 597 982 609Q936 649 880 677Q871 681 863 678Q841 665 825 649Q818 645 808 641H560Q570 651 575 666Q579 688 569 710Q554 738 522 760Q489 782 433 795Q423 799 419 790Q416 780 424 773Q446 755 459 727Q472 700 475 673Q476 654 489 641H226H203L178 643Q175 665 169 687Q168 694 162 695Q158 695 156 688Q143 642 124 621Q106 599 80 586Q50 573 41 542Q32 512 46 491Q62 469 91 467Q121 466 144 487Q172 520 178 575Q179 593 180 610L226 614H831Q819 584 804 554Q789 566 772 576Q760 583 752 574Q721 540 695 502Q691 496 683 493Q679 493 676 493H242H234L172 500Q159 503 161 496Q165 477 171 460Q172 453 182 457L242 466H371Q340 414 298 364Q283 349 268 334V334V334V335V334Z" fill="#FF0100"/></g></g></g></g><g><g transform="translate(48.8,113.4264) scale(0.012187500000000002,0.018890625000000005)"><g transform="scale(1,-1) translate(0,-820)"><path d="M529 705Q548 642 583 570Q616 503 656 448Q692 399 748 351Q815 296 883 270Q899 263 901 273Q907 295 930 326Q958 353 990 363Q1000 367 999 374Q999 378 989 380Q926 393 850 432Q778 469 719 517Q656 568 613 623Q574 674 548 728Q567 732 569 743Q570 756 548 765Q494 783 437 790Q430 790 429 784Q428 780 427 773Q393 638 285 498Q174 362 59 282Q52 278 54 272Q55 266 64 269Q197 321 330 441Q456 562 529 705V705V705ZM527 353H353H345L284 360Q271 363 273 356Q277 337 283 320Q284 313 294 317L353 326H527H562H702V326Q715 326 719 333Q722 339 715 347V347Q678 399 621 433Q609 440 601 431Q571 397 546 362Q542 356 534 353Q530 353 527 353V353V353ZM340 -110H673V-134Q673 -155 681 -166Q690 -178 713 -178Q749 -175 767 -165Q783 -155 784 -135V129Q784 142 794 147Q815 156 815 168Q815 178 803 188Q757 221 706 239Q699 242 694 238Q681 225 668 208Q662 201 656 201H338Q286 229 239 243Q229 247 228 240Q229 236 229 233V-144Q228 -165 236 -171Q249 -181 271 -181Q299 -180 322 -167Q340 -155 340 -128V-110V-110ZM340 -83V174H662Q669 177 673 168V-83H340V-83V-82V-83Z" fill="#FF0100"/></g></g><g transform="translate(61.28,113.4264) scale(0.012187500000000002,0.018890625000000005)"><g transform="scale(1,-1) translate(0,-820)"><path d="M224 705L225 706H787Q796 707 797 695V-26Q797 -39 787 -51Q781 -58 766 -60Q750 -61 707 -59Q692 -58 689 -67Q688 -79 698 -83Q735 -90 757 -120Q773 -145 776 -169Q777 -178 784 -177Q826 -178 867 -154Q907 -129 908 -69V651Q908 669 922 677Q952 687 954 702Q955 715 942 729Q912 754 843 787Q831 793 823 784Q810 768 791 742Q784 735 767 733H235Q175 767 125 784Q118 785 115 784Q114 783 113 776V-139Q113 -158 122 -167Q132 -177 154 -178Q190 -178 209 -162Q224 -150 224 -117V705V705ZM563 569H349H341L280 576Q267 579 269 572Q273 553 279 536Q280 529 290 533L349 542H563H598H738V542Q751 542 755 549Q758 555 751 563V563Q714 615 657 649Q645 656 637 647Q607 613 582 578Q578 572 570 569Q566 569 563 569V569V569ZM424 118H585V79Q585 60 592 50Q601 40 622 39Q656 40 672 50Q687 60 688 79V329Q688 342 698 346Q717 355 717 365Q717 375 705 384Q663 415 615 431Q608 434 604 430Q591 418 579 404Q575 397 568 397H437H427Q375 425 330 439Q320 442 320 436Q321 432 321 430V65Q320 46 327 40Q340 31 360 31Q387 32 408 44Q424 54 424 81V118V118ZM424 145V368L437 370H574Q581 373 585 365V145H424V145V146V145Z" fill="#FF0100"/></g></g><g transform="translate(73.76,113.4264) scale(0.012187500000000002,0.018890625000000005)"><g transform="scale(1,-1) translate(0,-820)"><path d="M560 32Q424 81 280 103Q270 104 268 96Q267 89 276 84Q400 35 493 -24Q584 -79 632 -135Q657 -166 681 -169Q706 -170 725 -152Q740 -133 740 -105Q737 -75 720 -58Q678 -12 592 20Q692 98 812 203Q819 207 826 206Q842 206 850 215Q854 225 843 236Q798 273 744 300Q737 304 728 301Q707 289 692 273Q686 269 676 265H409Q433 329 457 394H777H812H966V394Q979 394 983 401Q986 407 979 415V415Q937 470 876 507Q863 514 855 505Q824 468 796 431Q792 424 777 421H466Q490 491 513 562H689H724H878V562Q891 562 895 569Q898 575 891 583V583Q849 638 788 675Q775 682 767 673Q736 636 708 599Q704 592 689 589H522Q534 628 546 666Q555 694 570 697Q598 698 600 717Q601 733 555 755Q503 776 466 788Q456 789 455 784Q455 783 454 780Q444 707 407 589H193H185L124 596Q111 599 113 592Q117 573 123 556Q124 549 134 553L193 562H398Q377 499 349 421H121H113L52 428Q39 431 41 424Q45 405 51 388Q52 381 62 385L121 394H339Q327 366 316 332L252 285Q245 281 252 271Q265 253 279 234Q279 234 280 232Q280 232 282 230Q295 212 310 192Q319 179 327 186L391 238H699Q641 133 560 32V32V32V33V32Z" fill="#FF0100"/></g></g><g transform="translate(86.24,113.4264) scale(0.012187500000000002,0.018890625000000005)"><g transform="scale(1,-1) translate(0,-820)"><path d="M460 222V-121Q460 -146 478 -156Q512 -172 546 -159Q571 -149 572 -121V222H777V-22Q777 -35 767 -47Q760 -54 743 -55Q727 -56 679 -51Q664 -50 661 -59Q660 -71 670 -75Q710 -82 733 -113Q752 -140 755 -164Q756 -174 764 -173Q806 -174 847 -150Q887 -125 888 -65V651Q888 669 902 677Q932 687 934 702Q935 715 922 729Q892 754 823 787Q811 793 803 784Q790 768 771 742Q764 735 747 733H277Q216 764 169 781Q162 784 161 772Q161 738 161 690V536Q161 341 154 227Q147 103 127 8Q109 -79 79 -152Q73 -159 78 -166Q82 -170 93 -165Q145 -117 186 -35Q234 65 252 199Q253 211 254 222H460V222ZM460 249H257Q267 351 271 462H460V249V249ZM572 462H777V249H572V462V462ZM460 489H271Q272 513 272 536V690Q272 697 272 706H460V489V489ZM572 706H767Q776 707 777 695V489H572V706V706V707V706Z" fill="#FF0100"/></g></g><g transform="translate(98.72,113.4264) scale(0.012187500000000002,0.018890625000000005)"><g transform="scale(1,-1) translate(0,-820)"><path d="M718 661H553Q563 671 568 687Q572 708 561 728Q548 753 517 773Q486 792 433 803Q423 807 419 797Q416 787 424 780Q443 764 455 738Q465 714 468 689Q469 673 479 661H185H177L116 668Q103 671 105 664Q109 645 115 628Q116 621 126 625L185 634H718H753H886V634Q899 634 903 641Q906 647 899 655V655Q863 704 809 738Q799 745 790 736Q760 703 736 669Q732 665 725 661Q721 661 718 661V661V661ZM774 493H636Q670 514 703 543Q716 556 726 557Q747 560 748 573Q749 589 722 598Q676 614 624 626Q615 627 614 617Q607 559 585 493H418Q425 502 429 513Q433 532 424 552Q411 577 383 596Q355 615 305 626Q295 630 291 621Q287 611 295 604Q311 588 321 564Q330 542 330 518Q330 505 338 493H133H125L64 500Q51 503 53 496Q57 477 63 460Q64 453 74 457L133 466H774H809H942V466Q955 466 959 473Q962 479 955 487V487Q919 536 865 570Q855 577 846 568Q816 535 792 501Q788 497 781 493Q777 493 774 493V493V493ZM452 18V-133Q452 -158 470 -168Q504 -184 538 -171Q563 -161 564 -133V18H783H818H958V18Q971 18 975 25Q978 31 971 39V39Q934 91 877 125Q865 132 857 123Q827 89 802 54Q798 48 790 45Q786 45 783 45H564V146H701Q701 125 709 114Q718 102 741 102Q777 105 795 115Q811 125 812 145V321Q812 334 822 339Q843 348 843 360Q843 370 831 380Q785 413 734 431Q727 434 722 430Q709 417 696 400Q690 393 684 393H318Q266 421 219 435Q209 439 208 432Q209 428 209 425V124Q208 103 216 97Q229 87 251 87Q279 88 302 101Q320 113 320 140V146H452V45H121H113L52 52Q39 55 41 48Q45 29 51 12Q52 5 62 9L121 18H452V18ZM320 173V254H701V173H320V173ZM320 281V366H690Q697 369 701 360V281H320V281V282V281Z" fill="#FF0100"/></g></g></g><g><g transform="rotate(43.92857142857143,80,80)"><g transform="translate(77.52857142857142,144) scale(0.009654017857142858,0.009654017857142858)"><g transform="scale(1,-1) translate(0,-820)"><path d="M438 332Q438 513 384 608Q335 695 242 695Q181 695 132 644Q68 571 67 468Q67 354 107 293Q156 224 224 224Q281 224 328 269Q335 276 343 285Q342 161 325 110Q309 53 287 23Q268 -7 247 -7Q222 -6 213 5Q206 15 206 37Q206 62 194 75Q184 88 160 89Q141 89 126 75Q113 62 112 37Q112 3 141 -24Q172 -55 233 -55Q291 -55 340 -2Q382 40 409 121Q437 200 438 332V332V332ZM343 355Q324 324 302 303Q268 272 244 271Q210 271 184 328Q162 382 161 468Q161 556 189 607Q214 647 242 648Q282 648 307 590Q341 509 343 355V355V355V356V355Z" fill="#FF0100"/></g></g></g><g transform="rotate(38.760504201680675,80,80)"><g transform="translate(77.52857142857142,144) scale(0.009654017857142858,0.009654017857142858)"><g transform="scale(1,-1) translate(0,-820)"><path d="M400 -42L437 142H390Q374 69 353 50Q332 34 306 33H145Q163 96 208 146Q305 260 358 322Q428 407 429 507Q429 589 380 643Q334 695 244 695Q172 695 122 636Q79 584 79 521Q79 487 97 464Q115 448 138 448Q156 448 175 464Q191 479 192 504Q192 525 179 545Q169 564 169 583Q169 595 183 616Q205 647 244 648Q277 648 301 620Q335 580 335 507Q335 395 273 317Q218 247 155 169Q85 79 84 -42H131H306H400V-42V-41V-42Z" fill="#FF0100"/></g></g></g><g transform="rotate(33.59243697478992,80,80)"><g transform="translate(77.52857142857142,144) scale(0.009654017857142858,0.009654017857142858)"><g transform="scale(1,-1) translate(0,-820)"><path d="M440 158Q440 273 364 321Q348 333 326 340Q347 353 364 374Q418 438 418 530Q418 600 374 647Q328 695 253 695Q189 695 138 652Q89 609 89 552Q89 530 102 515Q115 502 137 502Q153 502 167 516Q182 532 182 552Q182 565 174 577Q168 587 168 601Q168 616 189 631Q213 647 253 648Q284 648 305 615Q324 587 325 530Q325 452 296 404Q269 359 207 359Q194 360 182 353Q173 347 172 336Q173 326 182 319Q192 312 207 312Q271 312 306 279Q346 240 347 158Q347 67 311 27Q283 -7 245 -7Q197 -7 178 10Q159 26 158 46Q158 56 165 66Q172 76 172 88Q172 109 157 126Q144 142 124 142Q103 142 86 127Q70 112 69 88Q69 43 112 -2Q163 -54 245 -54Q327 -54 380 2Q440 63 440 158V158V158V159V158Z" fill="#FF0100"/></g></g></g><g transform="rotate(28.42436974789916,80,80)"><g transform="translate(77.52857142857142,144) scale(0.009654017857142858,0.009654017857142858)"><g transform="scale(1,-1) translate(0,-820)"><path d="M96 620V299H143Q152 327 178 347Q206 365 235 365Q278 365 309 320Q339 274 339 183Q339 84 309 39Q279 -7 235 -7Q198 -7 179 11Q163 27 162 49Q162 59 168 68Q175 80 176 93Q176 115 163 132Q150 148 126 149Q102 149 87 133Q74 117 73 93Q73 33 123 -12Q172 -54 235 -54Q311 -54 370 4Q433 68 433 183Q433 297 377 356Q323 411 235 412Q196 412 155 386Q148 382 143 377V620H380L401 695H143H96V620V620V621V620Z" fill="#FF0100"/></g></g></g><g transform="rotate(23.256302521008404,80,80)"><g transform="translate(77.52857142857142,144) scale(0.009654017857142858,0.009654017857142858)"><g transform="scale(1,-1) translate(0,-820)"><path d="M81 321Q81 126 145 17Q191 -53 256 -54Q314 -54 367 26Q431 126 431 321Q431 520 367 619Q315 695 256 695Q196 695 144 617Q81 520 81 321V321V321ZM174 321Q174 543 211 612Q230 648 256 648Q278 648 296 614Q338 544 338 321Q338 105 296 25Q280 -6 256 -7Q226 -7 209 30Q175 106 174 321V321V321V322V321Z" fill="#FF0100"/></g></g></g><g transform="rotate(18.08823529411765,80,80)"><g transform="translate(77.52857142857142,144) scale(0.009654017857142858,0.009654017857142858)"><g transform="scale(1,-1) translate(0,-820)"><path d="M69 288Q69 102 143 5Q188 -53 262 -54Q328 -54 377 7Q440 80 440 193Q440 287 390 351Q344 406 281 406Q214 406 164 361Q163 361 163 360Q166 457 178 509Q196 582 221 618Q240 649 269 648Q290 649 300 637Q310 627 311 608Q311 587 323 574Q338 561 359 561Q378 561 392 574Q405 587 405 608Q405 645 369 670Q332 695 284 695Q211 695 159 631Q114 570 89 481Q70 393 69 288V288V288ZM163 288Q163 289 163 291Q175 310 190 323Q230 359 262 359Q295 359 320 313Q345 270 346 193Q346 97 313 38Q289 -7 262 -7Q231 -7 205 36Q163 103 163 288V288V288V289V288Z" fill="#FF0100"/></g></g></g><g transform="rotate(12.92016806722689,80,80)"><g transform="translate(77.52857142857142,144) scale(0.009654017857142858,0.009654017857142858)"><g transform="scale(1,-1) translate(0,-820)"><path d="M400 -42L437 142H390Q374 69 353 50Q332 34 306 33H145Q163 96 208 146Q305 260 358 322Q428 407 429 507Q429 589 380 643Q334 695 244 695Q172 695 122 636Q79 584 79 521Q79 487 97 464Q115 448 138 448Q156 448 175 464Q191 479 192 504Q192 525 179 545Q169 564 169 583Q169 595 183 616Q205 647 244 648Q277 648 301 620Q335 580 335 507Q335 395 273 317Q218 247 155 169Q85 79 84 -42H131H306H400V-42V-41V-42Z" fill="#FF0100"/></g></g></g><g transform="rotate(7.752100840336134,80,80)"><g transform="translate(77.52857142857142,144) scale(0.009654017857142858,0.009654017857142858)"><g transform="scale(1,-1) translate(0,-820)"><path d="M400 -42L437 142H390Q374 69 353 50Q332 34 306 33H145Q163 96 208 146Q305 260 358 322Q428 407 429 507Q429 589 380 643Q334 695 244 695Q172 695 122 636Q79 584 79 521Q79 487 97 464Q115 448 138 448Q156 448 175 464Q191 479 192 504Q192 525 179 545Q169 564 169 583Q169 595 183 616Q205 647 244 648Q277 648 301 620Q335 580 335 507Q335 395 273 317Q218 247 155 169Q85 79 84 -42H131H306H400V-42V-41V-42Z" fill="#FF0100"/></g></g></g><g transform="rotate(2.584033613445378,80,80)"><g transform="translate(77.52857142857142,144) scale(0.009654017857142858,0.009654017857142858)"><g transform="scale(1,-1) translate(0,-820)"><path d="M233 -42L354 578V46Q354 28 349 17Q342 5 306 5V-42H491V5Q457 5 452 16Q448 28 447 46V599Q447 623 453 636Q459 648 489 648V695H377H354H331L236 144L144 695H97H51H14V648Q44 648 47 640Q51 631 51 615V42Q51 26 44 16Q38 6 18 5V-42H139V5Q111 5 104 15Q97 25 97 42V477L210 -42H233V-42V-41V-42Z" fill="#FF0100"/></g></g></g><g transform="rotate(-2.584033613445378,80,80)"><g transform="translate(77.52857142857142,144) scale(0.009654017857142858,0.009654017857142858)"><g transform="scale(1,-1) translate(0,-820)"><path d="M452 47L294 695H247H201L66 48Q60 26 47 14Q37 5 18 5V-42H144V5Q122 5 114 17Q110 27 112 48L149 230H314L359 47Q363 28 356 15Q352 5 337 5V-42H493V5Q474 5 463 19Q456 32 452 47V47V47ZM225 593L302 276H158L225 593V593V594V593Z" fill="#FF0100"/></g></g></g><g transform="rotate(-7.752100840336134,80,80)"><g transform="translate(77.52857142857142,144) scale(0.009654017857142858,0.009654017857142858)"><g transform="scale(1,-1) translate(0,-820)"><path d="M437 120Q437 204 403 262Q369 316 319 352Q371 392 390 430Q412 476 413 524Q413 591 369 644Q327 695 251 695Q187 695 140 648Q91 597 90 524Q90 440 119 390Q138 356 183 321Q119 270 96 227Q69 178 69 120Q69 57 119 3Q177 -54 260 -54Q326 -54 382 -2Q437 49 437 120V120V120ZM339 202Q361 168 362 120Q362 66 329 29Q298 -7 260 -7Q218 -7 192 27Q164 63 163 120Q163 169 187 225Q202 256 236 287Q311 244 339 202V202V202ZM191 620Q213 648 251 648Q276 648 298 614Q319 580 319 524Q319 475 302 432Q292 410 265 385Q208 422 186 453Q165 481 165 524Q165 584 191 620V620V620V621V620Z" fill="#FF0100"/></g></g></g><g transform="rotate(-12.92016806722689,80,80)"><g transform="translate(77.52857142857142,144) scale(0.009654017857142858,0.009654017857142858)"><g transform="scale(1,-1) translate(0,-820)"><path d="M206 596V53Q206 28 201 16Q197 6 180 5Q173 5 168 5V-42H333V5Q327 5 320 5Q307 5 303 16Q299 26 299 53V596Q299 620 304 634Q310 647 329 648Q335 648 341 648Q351 648 364 648Q395 648 416 614Q432 584 447 516L473 527L445 695H341H150H56L32 522L57 512Q70 585 90 614Q109 648 150 648Q159 648 169 648Q193 648 199 634Q206 621 206 596V596V596V597V596Z" fill="#FF0100"/></g></g></g><g transform="rotate(-18.088235294117652,80,80)"><g transform="translate(77.52857142857142,144) scale(0.009654017857142858,0.009654017857142858)"><g transform="scale(1,-1) translate(0,-820)"><path d="M400 -42L437 142H390Q374 69 353 50Q332 34 306 33H145Q163 96 208 146Q305 260 358 322Q428 407 429 507Q429 589 380 643Q334 695 244 695Q172 695 122 636Q79 584 79 521Q79 487 97 464Q115 448 138 448Q156 448 175 464Q191 479 192 504Q192 525 179 545Q169 564 169 583Q169 595 183 616Q205 647 244 648Q277 648 301 620Q335 580 335 507Q335 395 273 317Q218 247 155 169Q85 79 84 -42H131H306H400V-42V-41V-42Z" fill="#FF0100"/></g></g></g><g transform="rotate(-23.256302521008408,80,80)"><g transform="translate(77.52857142857142,144) scale(0.009654017857142858,0.009654017857142858)"><g transform="scale(1,-1) translate(0,-820)"><path d="M390 12V604Q390 620 400 635Q410 648 430 648Q440 648 454 648V695H233V648Q245 648 257 648Q276 648 287 634Q297 621 297 604V12Q297 -57 273 -95Q254 -123 219 -123Q176 -123 165 -111Q156 -104 156 -92Q156 -82 165 -73Q178 -60 179 -40Q179 -9 160 10Q141 29 116 30Q91 30 74 10Q58 -9 57 -40Q57 -92 102 -131Q148 -170 205 -170Q290 -170 335 -124Q390 -73 390 12V12V12V13V12Z" fill="#FF0100"/></g></g></g><g transform="rotate(-28.424369747899163,80,80)"><g transform="translate(77.52857142857142,144) scale(0.009654017857142858,0.009654017857142858)"><g transform="scale(1,-1) translate(0,-820)"><path d="M422 48L285 364L395 602Q402 615 417 633Q432 648 446 648Q456 648 464 648V695H312V648Q325 648 334 648Q347 648 352 634Q355 622 349 602L263 416L185 598Q178 617 181 633Q185 648 200 648Q210 648 222 648V695H41V648Q45 648 51 648Q64 648 72 634Q82 619 92 598L215 311L96 49V49Q89 33 75 21Q59 5 39 5Q32 5 29 5V-42H195V5Q182 5 167 5Q145 5 140 21Q137 34 142 49L237 259L329 48Q336 29 328 15Q321 5 306 5Q302 5 295 5V-42H480V5Q477 5 472 5Q448 5 439 18Q429 31 422 48V48V48V49V48Z" fill="#FF0100"/></g></g></g><g transform="rotate(-33.59243697478992,80,80)"><g transform="translate(77.52857142857142,144) scale(0.009654017857142858,0.009654017857142858)"><g transform="scale(1,-1) translate(0,-820)"><path d="M438 332Q438 513 384 608Q335 695 242 695Q181 695 132 644Q68 571 67 468Q67 354 107 293Q156 224 224 224Q281 224 328 269Q335 276 343 285Q342 161 325 110Q309 53 287 23Q268 -7 247 -7Q222 -6 213 5Q206 15 206 37Q206 62 194 75Q184 88 160 89Q141 89 126 75Q113 62 112 37Q112 3 141 -24Q172 -55 233 -55Q291 -55 340 -2Q382 40 409 121Q437 200 438 332V332V332ZM343 355Q324 324 302 303Q268 272 244 271Q210 271 184 328Q162 382 161 468Q161 556 189 607Q214 647 242 648Q282 648 307 590Q341 509 343 355V355V355V356V355Z" fill="#FF0100"/></g></g></g><g transform="rotate(-38.760504201680675,80,80)"><g transform="translate(77.52857142857142,144) scale(0.009654017857142858,0.009654017857142858)"><g transform="scale(1,-1) translate(0,-820)"><path d="M367 181V695H320L319 693L58 181V134H274V63Q274 32 254 17Q235 5 206 5V-42H435V5Q401 5 384 18Q368 30 367 63V134H450V181H367V181ZM274 513V181H105L274 513V513V514V513Z" fill="#FF0100"/></g></g></g><g transform="rotate(-43.92857142857143,80,80)"><g transform="translate(77.52857142857142,144) scale(0.009654017857142858,0.009654017857142858)"><g transform="scale(1,-1) translate(0,-820)"><path d="M80 600V35Q80 23 74 14Q68 5 32 5V-42H225V5Q185 5 179 14Q173 23 173 35V298H252Q363 298 412 342Q473 394 474 500Q474 548 454 591Q430 646 387 670Q338 695 284 695Q253 695 217 695H34V648Q65 648 72 634Q79 619 80 600V600V600ZM173 600Q173 619 180 635Q184 648 217 648Q245 648 269 648Q300 648 326 628Q351 609 366 573Q379 539 380 500Q380 427 349 390Q313 345 252 345H173V600V600V601V600Z" fill="#FF0100"/></g></g></g></g></g>
</svg>